<svg aria-hidden="true" style="position: absolute; width: 0; height: 0; overflow: hidden;" version="1.1" xmlns="http://www.w3.org/2000/svg" xmlns:xlink="http://www.w3.org/1999/xlink">
<defs>
<symbol id="icon-inst" viewBox="0 0 33 32">
<path fill="#000" style="fill: var(--color2, #000)" d="M16.173 9.446c2.12 0 2.41 0 3.277 0 0.771 0 1.157 0.193 1.446 0.289 0.386 0.193 0.675 0.289 0.964 0.578s0.482 0.578 0.578 0.964c0.096 0.289 0.193 0.675 0.289 1.446 0 0.868 0 1.060 0 3.277s0 2.41 0 3.277c0 0.771-0.193 1.157-0.289 1.446-0.193 0.386-0.289 0.675-0.578 0.964s-0.578 0.482-0.964 0.578c-0.289 0.096-0.675 0.193-1.446 0.289-0.867 0-1.060 0-3.277 0s-2.41 0-3.277 0c-0.771 0-1.157-0.193-1.446-0.289-0.386-0.193-0.675-0.289-0.964-0.578s-0.482-0.578-0.578-0.964c-0.096-0.289-0.193-0.675-0.289-1.446 0-0.867 0-1.060 0-3.277s0-2.41 0-3.277c0-0.771 0.193-1.157 0.289-1.446 0.193-0.386 0.289-0.675 0.578-0.964s0.578-0.482 0.964-0.578c0.289-0.096 0.675-0.193 1.446-0.289 0.868 0 1.157 0 3.277 0zM16.173 8c-2.217 0-2.41 0-3.277 0s-1.446 0.193-1.928 0.386c-0.482 0.193-0.964 0.482-1.446 0.964s-0.675 0.868-0.964 1.446c-0.193 0.482-0.289 1.060-0.386 1.928 0 0.868 0 1.157 0 3.277 0 2.217 0 2.41 0 3.277s0.193 1.446 0.386 1.928c0.193 0.482 0.482 0.964 0.964 1.446s0.867 0.675 1.446 0.964c0.482 0.193 1.060 0.289 1.928 0.386 0.868 0 1.157 0 3.277 0s2.41 0 3.277 0c0.867 0 1.446-0.193 1.928-0.386s0.964-0.482 1.446-0.964c0.482-0.482 0.675-0.868 0.964-1.446 0.193-0.482 0.289-1.060 0.386-1.928 0-0.867 0-1.157 0-3.277s0-2.41 0-3.277c0-0.867-0.193-1.446-0.386-1.928s-0.482-0.964-0.964-1.446c-0.482-0.482-0.868-0.675-1.446-0.964-0.482-0.193-1.060-0.289-1.928-0.386-0.867 0-1.060 0-3.277 0z"></path>
<path fill="#000" style="fill: var(--color2, #000)" d="M16.173 11.855c-2.313 0-4.145 1.831-4.145 4.145s1.831 4.145 4.145 4.145c2.313 0 4.145-1.831 4.145-4.145s-1.831-4.145-4.145-4.145zM16.173 18.699c-1.446 0-2.699-1.157-2.699-2.699 0-1.446 1.157-2.699 2.699-2.699 1.446 0 2.699 1.157 2.699 2.699 0 1.446-1.253 2.699-2.699 2.699z"></path>
<path fill="#000" style="fill: var(--color2, #000)" d="M20.414 12.723c0.532 0 0.964-0.432 0.964-0.964s-0.432-0.964-0.964-0.964c-0.532 0-0.964 0.432-0.964 0.964s0.432 0.964 0.964 0.964z"></path>
</symbol>
<symbol id="icon-telegram" viewBox="0 0 31 32">
<path fill="#000" style="fill: var(--color2, #000)" d="M21.854 10.085l-2.346 12.246c0 0-0.328 0.849-1.23 0.442l-5.412-4.297-0.025-0.013c0.731-0.68 6.4-5.958 6.648-6.197 0.384-0.371 0.145-0.591-0.3-0.311l-8.374 5.507-3.231-1.126c0 0-0.508-0.187-0.557-0.594s0.574-0.628 0.574-0.628l13.17-5.35c0 0 1.082-0.492 1.082 0.323v0z"></path>
</symbol>
<symbol id="icon-tiktok" viewBox="0 0 30 32">
<path fill="#000" style="fill: var(--color2, #000)" d="M22.645 11.373c-1.053 0-2.062-0.432-2.806-1.201s-1.162-1.812-1.162-2.899h-2.835v11.471c-0.001 0.523-0.16 1.033-0.457 1.456s-0.715 0.741-1.195 0.905c-0.48 0.165-0.999 0.169-1.482 0.012s-0.906-0.467-1.209-0.886c-0.303-0.419-0.471-0.926-0.479-1.449s0.142-1.035 0.431-1.465c0.289-0.429 0.702-0.754 1.179-0.927s0.996-0.188 1.481-0.040v-2.848c-1.032-0.144-2.082 0.041-3.009 0.53s-1.689 1.259-2.182 2.206-0.695 2.028-0.578 3.097c0.117 1.069 0.547 2.076 1.232 2.886s1.594 1.385 2.603 1.647c1.010 0.263 2.073 0.201 3.048-0.177s1.815-1.055 2.408-1.939c0.593-0.884 0.911-1.935 0.911-3.011l0.083-5.798c1.165 0.884 2.573 1.359 4.018 1.357l-0-2.929z"></path>
</symbol>
<symbol id="icon-youtube" viewBox="0 0 31 32">
<path fill="#000" style="fill: var(--color2, #000)" d="M8.79 21.366c-0.306-0.091-0.586-0.252-0.814-0.47s-0.401-0.487-0.501-0.783c-0.573-1.533-0.743-7.933 0.361-9.197 0.367-0.411 0.886-0.664 1.443-0.704 2.96-0.311 12.105-0.269 13.155 0.104 0.295 0.094 0.565 0.251 0.789 0.461s0.397 0.466 0.505 0.751c0.626 1.585 0.647 7.343-0.085 8.865-0.194 0.396-0.519 0.717-0.923 0.911-1.103 0.539-12.466 0.528-13.93 0.062v0zM13.49 18.363l5.305-2.693-5.305-2.713v5.406z"></path>
</symbol>
<symbol id="icon-youmus" viewBox="0 0 32 32">
<path fill="#fff" style="fill: var(--color1, #fff)" d="M3.549 26.952c-0.545-0.178-1.042-0.495-1.449-0.924s-0.713-0.957-0.892-1.54c-1.019-3.014-1.321-15.597 0.642-18.082 0.653-0.808 1.576-1.306 2.567-1.385 5.267-0.611 21.539-0.529 23.408 0.204 0.526 0.184 1.006 0.494 1.405 0.906s0.706 0.917 0.898 1.476c1.114 3.115 1.151 14.437-0.151 17.43-0.345 0.779-0.924 1.41-1.642 1.792-1.963 1.059-22.181 1.038-24.787 0.122v0zM11.912 21.047l9.439-5.294-9.439-5.335v10.629z"></path>
</symbol>
<symbol id="icon-spoty" viewBox="0 0 32 32">
<path fill="#fff" style="fill: var(--color1, #fff)" d="M24.649 27.288c-0.338 0-0.677-0.185-1.015-0.373-3.214-2.055-7.105-3.177-11.332-3.177-2.369 0-4.737 0.372-6.936 0.933-0.338 0-0.846 0.187-1.015 0.187-0.846 0-1.353-0.749-1.353-1.496 0-0.933 0.507-1.496 1.184-1.68 2.706-0.749 5.413-1.121 8.287-1.121 4.737 0 9.135 1.306 12.855 3.739 0.507 0.372 0.846 0.747 0.846 1.68-0.169 0.749-0.846 1.308-1.522 1.308zM27.017 20.932c-0.507 0-0.845-0.184-1.184-0.372-3.551-2.43-8.458-3.927-14.038-3.927-2.707 0-5.244 0.375-7.105 0.937-0.508 0.184-0.677 0.184-1.015 0.184-1.015 0-1.692-0.933-1.692-1.868 0-1.121 0.508-1.683 1.353-2.055 2.537-0.747 5.075-1.308 8.627-1.308 5.752 0 11.334 1.496 15.731 4.485 0.676 0.372 1.015 1.121 1.015 1.868 0 1.123-0.677 2.056-1.692 2.056zM29.724 13.459c-0.507 0-0.677-0.187-1.184-0.372-4.060-2.618-10.149-4.114-16.069-4.114-3.045 0-6.090 0.375-8.796 1.121-0.339 0-0.677 0.187-1.184 0.187-1.184 0.187-2.030-0.934-2.030-2.243 0-1.308 0.677-2.055 1.522-2.243 3.214-1.122 6.597-1.496 10.488-1.496 6.428 0 13.193 1.496 18.268 4.673 0.676 0.375 1.183 1.121 1.183 2.243-0.168 1.308-1.015 2.244-2.198 2.244z"></path>
</symbol>
<symbol id="icon-applemus" viewBox="0 0 22 32">
<path fill="#fff" style="fill: var(--color1, #fff)" d="M8.012 4.139c-0.525 0.134-0.897 0.651-0.897 1.247v16.885c0 0.706-0.518 1.279-1.157 1.279h-1.157c-2.557 0-4.629 1.717-4.629 3.836s2.073 3.836 4.629 3.836c2.557 0 4.629-1.717 4.629-3.836v-14.918c0-0.596 0.371-1.113 0.897-1.246l8.455-2.156c0.544-0.139 1.064 0.317 1.064 0.934v8.435c0 0.706-0.518 1.279-1.157 1.279h-1.157c-2.557 0-4.629 1.717-4.629 3.836s2.073 3.836 4.629 3.836 4.629-1.717 4.629-3.836v-21.411c0-0.822-0.692-1.431-1.418-1.246l-12.73 3.246z"></path>
</symbol>
</defs>
</svg>
